0
SECTION
2
HEADER
9
$INSUNITS
70
4
9
$ACADVER
1
AC1014
9
$HANDSEED
5
FFFF
0
ENDSEC
0
SECTION
2
TABLES
0
TABLE
2
VPORT
5
8
100
AcDbSymbolTable
0
ENDTAB
0
TABLE
2
LTYPE
5
5
100
AcDbSymbolTable
0
LTYPE
5
14
100
AcDbSymbolTableRecord
100
AcDbLinetypeTableRecord
2
BYBLOCK
70
0
0
LTYPE
5
15
100
AcDbSymbolTableRecord
100
AcDbLinetypeTableRecord
2
BYLAYER
70
0
0
ENDTAB
0
TABLE
2
LAYER
5
2
100
AcDbSymbolTable
70
2
0
LAYER
5
50
100
AcDbSymbolTableRecord
100
AcDbLayerTableRecord
2
0
70
0
6
CONTINUOUS
0
ENDTAB
0
TABLE
2
STYLE
5
3
100
AcDbSymbolTable
70
1
0
STYLE
5
11
100
AcDbSymbolTableRecord
100
AcDbTextStyleTableRecord
2
STANDARD
70
0
0
ENDTAB
0
TABLE
2
VIEW
5
6
100
AcDbSymbolTable
70
0
0
ENDTAB
0
TABLE
2
UCS
5
7
100
AcDbSymbolTable
70
0
0
ENDTAB
0
TABLE
2
APPID
5
9
100
AcDbSymbolTable
70
2
0
APPID
5
12
100
AcDbSymbolTableRecord
100
AcDbRegAppTableRecord
2
ACAD
70
0
0
ENDTAB
0
TABLE
2
DIMSTYLE
5
A
100
AcDbSymbolTable
70
1
0
ENDTAB
0
TABLE
2
BLOCK_RECORD
5
1
100
AcDbSymbolTable
70
1
0
BLOCK_RECORD
5
1F
100
AcDbSymbolTableRecord
100
AcDbBlockTableRecord
2
*MODEL_SPACE
0
BLOCK_RECORD
5
1B
100
AcDbSymbolTableRecord
100
AcDbBlockTableRecord
2
*PAPER_SPACE
0
ENDTAB
0
ENDSEC
0
SECTION
2
BLOCKS
0
BLOCK
5
20
100
AcDbEntity
100
AcDbBlockBegin
2
*MODEL_SPACE
0
ENDBLK
5
21
100
AcDbEntity
100
AcDbBlockEnd
0
BLOCK
5
1C
100
AcDbEntity
100
AcDbBlockBegin
2
*PAPER_SPACE
0
ENDBLK
5
1D
100
AcDbEntity
100
AcDbBlockEnd
0
ENDSEC
0
SECTION
2
ENTITIES
0
LWPOLYLINE
5
100
100
AcDbEntity
8
0
100
AcDbPolyline
90
4
70
1
43
0.0
10
-70.5
20
-149.30000000000001
42
0.99999999999999989
10
-70.499999999999986
20
-145.69999999999999
10
-74.5
20
-145.69999999999999
42
0.99999999999999989
10
-74.5
20
-149.30000000000001
0
LWPOLYLINE
5
101
100
AcDbEntity
8
0
100
AcDbPolyline
90
4
70
1
43
0.0
10
-70.5
20
-74.299999999999997
42
0.99999999999999989
10
-70.5
20
-70.700000000000003
10
-74.5
20
-70.700000000000003
42
0.99999999999999989
10
-74.5
20
-74.299999999999997
0
LWPOLYLINE
5
102
100
AcDbEntity
8
0
100
AcDbPolyline
90
4
70
1
43
0.0
10
-145.5
20
-74.299999999999997
42
0.99999999999999989
10
-145.5
20
-70.700000000000003
10
-149.5
20
-70.700000000000003
42
0.99999999999999989
10
-149.5
20
-74.299999999999997
0
LWPOLYLINE
5
103
100
AcDbEntity
8
0
100
AcDbPolyline
90
4
70
1
43
0.0
10
-149.5
20
-145.69999999999999
42
0.99999999999999989
10
-149.5
20
-149.30000000000001
10
-145.5
20
-149.30000000000001
42
0.99999999999999989
10
-145.5
20
-145.69999999999999
0
LWPOLYLINE
5
104
100
AcDbEntity
8
0
100
AcDbPolyline
90
32
70
1
43
0.0
10
-200
20
-186.00000000000006
10
-200
20
-216.49999999999994
42
0.41421356237309509
10
-196.99999999999994
20
-219.5
10
-133.00000000000006
20
-219.5
42
0.41421356237309509
10
-130
20
-216.49999999999994
10
-130.00000000000003
20
-202.5
42
-0.41421356237308465
10
-126.99999999999997
20
-199.5
10
-93.000000000000028
20
-199.49999999999994
42
-0.41421356237310197
10
-90
20
-202.5
10
-90
20
-216.49999999999994
42
0.41421356237309509
10
-86.999999999999957
20
-219.5
10
-23.000000000000043
20
-219.5
42
0.41421356237309509
10
-20
20
-216.49999999999994
10
-19.999999999999996
20
-186.00000000000006
42
-0.41421356237309587
10
-16.999999999999943
20
-183
10
-3.5000000000000409
20
-183
42
0.41421356237309481
10
-0.50000000000000044
20
-179.99999999999997
10
-0.49999999999999822
20
-40.000000000000036
42
0.41421356237309509
10
-3.5000000000000431
20
-36.999999999999993
10
-16.99999999999994
20
-36.999999999999993
42
-0.41421356237309698
10
-20
20
-33.99999999999995
10
-20
20
-3.5000000000000497
42
0.41421356237309509
10
-23.000000000000043
20
-0.50000000000000711
10
-196.99999999999994
20
-0.50000000000000711
42
0.41421356237309509
10
-200
20
-3.5000000000000497
10
-200
20
-33.99999999999995
42
-0.41421356237309548
10
-203.00000000000006
20
-36.999999999999993
10
-216.49999999999994
20
-36.999999999999993
42
0.41421356237309509
10
-219.5
20
-40.000000000000036
10
-219.5
20
-179.99999999999997
42
0.41421356237309509
10
-216.49999999999994
20
-183
10
-203.00000000000006
20
-183
42
-0.41421356237309509
0
ENDSEC
0
SECTION
2
OBJECTS
0
DICTIONARY
5
C
100
AcDbDictionary
3
ACAD_GROUP
350
D
3
ACAD_MLINESTYLE
350
17
0
DICTIONARY
5
D
100
AcDbDictionary
0
DICTIONARY
5
1A
330
C
100
AcDbDictionary
0
DICTIONARY
5
17
100
AcDbDictionary
0
ENDSEC
0
EOF
