0
SECTION
2
HEADER
9
$INSUNITS
70
4
9
$ACADVER
1
AC1014
9
$HANDSEED
5
FFFF
0
ENDSEC
0
SECTION
2
TABLES
0
TABLE
2
VPORT
5
8
100
AcDbSymbolTable
0
ENDTAB
0
TABLE
2
LTYPE
5
5
100
AcDbSymbolTable
0
LTYPE
5
14
100
AcDbSymbolTableRecord
100
AcDbLinetypeTableRecord
2
BYBLOCK
70
0
0
LTYPE
5
15
100
AcDbSymbolTableRecord
100
AcDbLinetypeTableRecord
2
BYLAYER
70
0
0
ENDTAB
0
TABLE
2
LAYER
5
2
100
AcDbSymbolTable
70
2
0
LAYER
5
50
100
AcDbSymbolTableRecord
100
AcDbLayerTableRecord
2
0
70
0
6
CONTINUOUS
0
ENDTAB
0
TABLE
2
STYLE
5
3
100
AcDbSymbolTable
70
1
0
STYLE
5
11
100
AcDbSymbolTableRecord
100
AcDbTextStyleTableRecord
2
STANDARD
70
0
0
ENDTAB
0
TABLE
2
VIEW
5
6
100
AcDbSymbolTable
70
0
0
ENDTAB
0
TABLE
2
UCS
5
7
100
AcDbSymbolTable
70
0
0
ENDTAB
0
TABLE
2
APPID
5
9
100
AcDbSymbolTable
70
2
0
APPID
5
12
100
AcDbSymbolTableRecord
100
AcDbRegAppTableRecord
2
ACAD
70
0
0
ENDTAB
0
TABLE
2
DIMSTYLE
5
A
100
AcDbSymbolTable
70
1
0
ENDTAB
0
TABLE
2
BLOCK_RECORD
5
1
100
AcDbSymbolTable
70
1
0
BLOCK_RECORD
5
1F
100
AcDbSymbolTableRecord
100
AcDbBlockTableRecord
2
*MODEL_SPACE
0
BLOCK_RECORD
5
1B
100
AcDbSymbolTableRecord
100
AcDbBlockTableRecord
2
*PAPER_SPACE
0
ENDTAB
0
ENDSEC
0
SECTION
2
BLOCKS
0
BLOCK
5
20
100
AcDbEntity
100
AcDbBlockBegin
2
*MODEL_SPACE
0
ENDBLK
5
21
100
AcDbEntity
100
AcDbBlockEnd
0
BLOCK
5
1C
100
AcDbEntity
100
AcDbBlockBegin
2
*PAPER_SPACE
0
ENDBLK
5
1D
100
AcDbEntity
100
AcDbBlockEnd
0
ENDSEC
0
SECTION
2
ENTITIES
0
LWPOLYLINE
5
100
100
AcDbEntity
8
0
100
AcDbPolyline
90
4
70
1
43
0.0
10
-88
20
-191.80000000000001
42
0.99999999999999989
10
-88
20
-188.19999999999999
10
-92
20
-188.19999999999999
42
0.99999999999999989
10
-92
20
-191.80000000000001
0
LWPOLYLINE
5
101
100
AcDbEntity
8
0
100
AcDbPolyline
90
4
70
1
43
0.0
10
-88
20
-91.799999999999997
42
0.99999999999999989
10
-88
20
-88.200000000000003
10
-92
20
-88.200000000000003
42
0.99999999999999989
10
-92
20
-91.799999999999997
0
LWPOLYLINE
5
102
100
AcDbEntity
8
0
100
AcDbPolyline
90
4
70
1
43
0.0
10
-188
20
-91.799999999999997
42
0.99999999999999989
10
-188
20
-88.200000000000003
10
-192
20
-88.200000000000003
42
0.99999999999999989
10
-192
20
-91.799999999999997
0
LWPOLYLINE
5
103
100
AcDbEntity
8
0
100
AcDbPolyline
90
4
70
1
43
0.0
10
-192
20
-188.19999999999999
42
0.99999999999999989
10
-192
20
-191.80000000000001
10
-188
20
-191.80000000000001
42
0.99999999999999989
10
-188
20
-188.19999999999999
0
LWPOLYLINE
5
104
100
AcDbEntity
8
0
100
AcDbPolyline
90
32
70
1
43
0.0
10
-260
20
-246.00000000000006
10
-260
20
-276.49999999999994
42
0.41421356237309509
10
-256.99999999999994
20
-279.5
10
-163.00000000000006
20
-279.5
42
0.41421356237309509
10
-160
20
-276.49999999999994
10
-160.00000000000085
20
-262.50000000000028
42
-0.41421356237301699
10
-156.99999999999997
20
-259.50000000000023
10
-123.00000000000003
20
-259.50000000000108
42
-0.41421356237310364
10
-120
20
-262.50000000000108
10
-120
20
-276.49999999999994
42
0.41421356237309509
10
-116.99999999999996
20
-279.5
10
-23.000000000000043
20
-279.5
42
0.41421356237309509
10
-20
20
-276.49999999999994
10
-20
20
-246.00000000000006
42
-0.41421356237309509
10
-16.999999999999957
20
-243
10
-3.5000000000000497
20
-243
42
0.41421356237309576
10
-0.49999999999999989
20
-239.99999999999997
10
-0.49999999999999822
20
-40.000000000000036
42
0.41421356237309509
10
-3.5000000000000431
20
-36.999999999999993
10
-16.99999999999994
20
-36.999999999999993
42
-0.41421356237309698
10
-20
20
-33.99999999999995
10
-20
20
-3.5000000000000497
42
0.41421356237309509
10
-23.000000000000043
20
-0.50000000000000711
10
-256.99999999999994
20
-0.49999999999997158
42
0.41421356237309453
10
-260
20
-3.5000000000000147
10
-260
20
-33.999999999999915
42
-0.41421356237309548
10
-263.00000000000006
20
-36.999999999999957
10
-276.49999999999994
20
-36.999999999999957
42
0.41421356237309453
10
-279.5
20
-39.999999999999993
10
-279.5
20
-239.99999999999997
42
0.41421356237309509
10
-276.49999999999994
20
-243
10
-263.00000000000006
20
-243
42
-0.41421356237309509
0
ENDSEC
0
SECTION
2
OBJECTS
0
DICTIONARY
5
C
100
AcDbDictionary
3
ACAD_GROUP
350
D
3
ACAD_MLINESTYLE
350
17
0
DICTIONARY
5
D
100
AcDbDictionary
0
DICTIONARY
5
1A
330
C
100
AcDbDictionary
0
DICTIONARY
5
17
100
AcDbDictionary
0
ENDSEC
0
EOF
